The Fifth Element 1997 BluRay DTS dxva-LoNeWolf

Movie has been tested and is DXVA Compliant

General Information:

RUNTIME........: 2h 5mn
SIZE...........: 11.5 GiB
VIDEO CODEC....: x264 (L4.1)
RESOLUTION.....: 1920x816
BITRATE........: Overall bit rate : 13.1 Mbps 
FRAMERATE......: 23.976 fps
AUDIO 1........: English DTS 6 Channels 1510 Kbps
SUBTITLES......: English,  French, Spanish,  Portuguese,  Chinese, Thai 
CHAPTERS.......: YES
SOURCE.........: NTSC Blu-ray 
ENCODED DATE...: UTC 2011-03-03 10:59:38 
Encoder........: TequilaBob a.k.a. LoNeWoLf
GENRE..........: Action, Sci-Fi, Thriller  
RATING.........: 7.5/10 X  Users: 7.5/10 (139,942 votes) 675 reviews | Critics: 164 reviews Metascore: 52/100
Release Date...: USA 24 September 1975 (New York City, New York) 
Rated..........: Rated R 
IMDB link......: http://www.imdb.com/title/tt0119116/



Director: Luc Besson
Writers: Luc Besson (story), Luc Besson (screenplay), and 1 more credit » 
Stars:Bruce Willis, Milla Jovovich, Gary Oldman  



Rated PG-13 for intense sci-fi violence, some sexuality and brief nudity

Release Date:9 May 1997 (USA)

Storyline
Two hundred and fifty years in the future, life as we know it is threatened by the arrival of Evil. Only the fifth element can stop the Evil from extinguishing life, as it tries to do every five thousand years. She is helped by ex-soldier, current-cab-driver, Korben Dallas, who is, in turn, helped by Prince/Arsenio clone, Ruby Rhod. Unfortunately, Evil is being assisted by Mr. Zorg, who seeks to profit from the chaos that Evil will bring, and his alien mercenaries. Written by David J. Gannon <dganno01@exch.eds.com> 


Cast
Cast overview, first billed only: 
  Bruce Willis  ...  Korben Dallas  
  Gary Oldman  ...  Jean-Baptiste Emanuel Zorg  
  Ian Holm  ...  Father Vito Cornelius  
  Milla Jovovich  ...  Leeloo  
  Chris Tucker  ...  Ruby Rhod  
  Luke Perry  ...  Billy  
  Brion James  ...  General Munro  
  Tommy 'Tiny' Lister  ...  President Lindberg (as Tommy 'Tiny' Lister Jr.)  
  Lee Evans  ...  Fog  
  Charlie Creed-Miles  ...  David (as Charlie Creed Miles)  
  Tricky  ...  Right Arm  
  John Neville  ...  General Staedert  
  John Bluthal  ...  Professor Pacoli  
  Mathieu Kassovitz  ...  Mugger  
  Christopher Fairbank  ...  Mactilburgh  

[img]http://torrent-stats.info/c672/f2033f28.png[/img]

Format : Matroska 
File size : 11.5 GiB 
Duration : 2h 5mn 
Overall bit rate : 13.1 Mbps 
Encoded date : UTC 2011-03-03 10:59:38 
Writing application : mkvmerge v4.4.0 ('Die Wiederkehr') built on Oct 31 2010 21:52:48 
Writing library : libebml v1.0.0 + libmatroska v1.0.0 

Video 
ID : 1 
Format : AVC 
Format/Info : Advanced Video Codec 
Format profile : High@L4.1 
Format settings, CABAC : Yes 
Format settings, ReFrames : 3 frames 
Muxing mode : Container profile=Unknown@4.1 
Codec ID : V_MPEG4/ISO/AVC 
Duration : 2h 5mn 
Bit rate : 11.5 Mbps 
Width : 1 920 pixels 
Height : 800 pixels 
Display aspect ratio : 2.40:1 
Frame rate : 23.976 fps 
Color space : YUV 
Chroma subsampling : 4:2:0 
Bit depth : 8 bits 
Scan type : Progressive 
Bits/(Pixel*Frame) : 0.312 
Stream size : 9.99 GiB (87%) 
Writing library : x264 core 112 r1867 22bfd31 
Encoding settings : cabac=1 / ref=4 / deblock=1:-3:-3 / analyse=0x3:0x113 / me=umh / subme=9 / psy=1 / psy_rd=1.00:0.08 / mixed_ref=1 / me_range=32 / chroma_me=1 / trellis=2 / 8x8dct=1 / cqm=0 / deadzone=21,11 / fast_pskip=0 / chroma_qp_offset=-3 / threads=6 / sliced_threads=0 / nr=0 / decimate=0 / interlaced=0 / constrained_intra=0 / bframes=6 / b_pyramid=1 / b_adapt=1 / b_bias=0 / direct=1 / weightb=1 / open_gop=2 / weightp=2 / keyint=250 / keyint_min=23 / scenecut=50 / intra_refresh=0 / rc_lookahead=100 / rc=2pass / mbtree=1 / bitrate=11499 / ratetol=1.0 / qcomp=0.60 / qpmin=10 / qpmax=51 / qpstep=4 / cplxblur=20.0 / qblur=0.5 / vbv_maxrate=50000 / vbv_bufsize=50000 / nal_hrd=none / ip_ratio=1.40 / aq=1:1.50 
Language : English 

Audio 
ID : 2 
Format : DTS 
Format/Info : Digital Theater Systems 
Codec ID : A_DTS 
Duration : 2h 5mn 
Bit rate mode : Constant 
Bit rate : 1 510 Kbps 
Channel(s) : 6 channels 
Channel positions : Front: L C R, Side: L R, LFE 
Sampling rate : 48.0 KHz 
Bit depth : 24 bits 
Stream size : 1.33 GiB (11%) 

Text  
ID : 3 
Format : PGS 
Codec ID : S_HDMV/PGS 
Codec ID/Info : The same subtitle format used on BDs/HD-DVDs 
Language : English  French Spanish  Portuguese  Chinese Thai 



Menu & 15 Chapters


See all 20 full size 1920x800 PNG files at the link below

 
http://s1015.photobucket.com/albums/af279/tequila-bob/The%20Fifth%20Element%201997/

 
http://www.phyrefile.com/image/view/mCTpCOgGBQXPwswj 
http://www.phyrefile.com/image/view/UsElB7mAqQdsNHj1 
http://www.phyrefile.com/image/view/71EPPuNrNCrIvRZ4 
http://www.phyrefile.com/image/view/MEKokUf5JCwBGh7j 
http://www.phyrefile.com/image/view/xu82M2cs1c0P8HmC 
http://www.phyrefile.com/image/view/g1w8NR5NCdh6yjFR 
http://www.phyrefile.com/image/view/v5o5Uh8Ds2fLOWjH 
http://www.phyrefile.com/image/view/WvmzuZJfL64SQGGi 
http://www.phyrefile.com/image/view/fyNq3Ud5KeC5l3qy 
http://www.phyrefile.com/image/view/mUzpvsGOKjPAArkK 
http://www.phyrefile.com/image/view/fm8K1GnXsESRxDrA 
http://www.phyrefile.com/image/view/lGxF11h1y5cM2tg3 
http://www.phyrefile.com/image/view/2NhTmfdz62kcU2He 
http://www.phyrefile.com/image/view/Bmg1WuD0emhGSRfk 
http://www.phyrefile.com/image/view/2S3UFnY8WlKNN8Si 
http://www.phyrefile.com/image/view/2B0i9AC9MTAUfwBL 
http://www.phyrefile.com/image/view/yoOMeKNdAkKAj9Vm 
http://www.phyrefile.com/image/view/OuMcgTFKYW3LaCyM 
http://www.phyrefile.com/image/view/DB9Rov7iW0LYAWc6 
http://www.phyrefile.com/image/view/IyDJoldv0oSQkouj

